<?xml version="1.0" standalone="no"?>
<!DOCTYPE svg PUBLIC "-//W3C//DTD SVG 20010904//EN"
 "http://www.w3.org/TR/2001/REC-SVG-20010904/DTD/svg10.dtd">
<svg version="1.0" xmlns="http://www.w3.org/2000/svg"
 width="712.000000pt" height="711.000000pt" viewBox="0 0 712.000000 711.000000"
 preserveAspectRatio="xMidYMid meet">
<metadata>
Created by potrace 1.16, written by Peter Selinger 2001-2019
</metadata>
<g transform="translate(0.000000,711.000000) scale(0.100000,-0.100000)"
fill="#000000" stroke="none">
<path d="M6105 6355 c-11 -2 -81 -11 -155 -20 -432 -52 -721 -111 -1620 -335
-1210 -301 -2214 -608 -2865 -877 -294 -121 -603 -299 -626 -362 -27 -69 137
-447 271 -626 60 -81 131 -155 147 -155 8 0 42 25 76 55 43 39 124 90 272 170
307 167 602 299 990 443 267 99 238 97 231 16 -15 -165 -26 -401 -31 -704 -6
-368 -11 -440 -28 -457 -7 -6 -67 -36 -134 -66 -145 -65 -305 -159 -459 -268
-123 -88 -148 -116 -165 -183 -16 -62 4 -224 42 -341 25 -80 110 -245 125
-245 4 0 57 48 118 108 129 123 262 235 391 327 l90 64 2 -37 c1 -20 7 -185
13 -367 23 -677 53 -1073 111 -1424 30 -187 42 -209 150 -272 102 -59 207 -90
325 -97 120 -6 171 2 179 27 3 10 -4 80 -16 157 -27 179 -36 546 -20 775 45
625 229 1136 559 1550 81 102 226 253 312 324 59 50 70 64 70 90 0 74 -81 262
-125 291 -19 12 -46 10 -226 -22 -246 -42 -372 -67 -498 -99 -52 -14 -96 -23
-97 -22 -3 3 12 297 26 512 12 191 34 411 56 560 20 137 24 155 37 155 7 0 75
21 152 45 272 88 915 266 1320 367 239 59 655 151 1050 233 440 91 449 93 468
117 21 25 18 75 -10 163 -50 159 -188 342 -298 395 -58 28 -157 45 -210 35z
m-2113 -2917 c-171 -212 -302 -464 -452 -868 -40 -107 -76 -198 -79 -203 -4
-4 -6 19 -4 50 1 32 8 238 14 458 8 303 14 405 24 421 9 14 66 41 167 79 201
77 360 134 376 134 6 1 -14 -32 -46 -71z"/>
</g>
</svg>
